PathFileType	4	(X/Y/Z)	 s08c0302.trc
DataRate	CameraRate	NumFrames	NumMarkers	Units	OrigDataRate	OrigDataStartFrame	OrigNumFrames
200	200	4	50	mm	200	1	2000
Frame#	Time	racr			lacr			c7			jug			rlel			rdr			llel			ldr			s2			lic			ric			lasi			rasi			rpsi			lpsi			rgt			lgt			rth1			rth2			rth3			rth4			rlfc			rmfc			rsh1			rsh2			rsh3			rsh4			rlmal			rmmal			rcal			rtoe			rmt5			lth1			lth2			lth4			lth3			llfc			lmfc			llmal			lmmal			lcal			lmt5			lsh1			lsh2			lsh3			lsh4			ltoe			SBIKE			LBIKE			RBIKE			
		X1	Y1	Z1	X2	Y2	Z2	X3	Y3	Z3	X4	Y4	Z4	X5	Y5	Z5	X6	Y6	Z6	X7	Y7	Z7	X8	Y8	Z8	X9	Y9	Z9	X10	Y10	Z10	X11	Y11	Z11	X12	Y12	Z12	X13	Y13	Z13	X14	Y14	Z14	X15	Y15	Z15	X16	Y16	Z16	X17	Y17	Z17	X18	Y18	Z18	X19	Y19	Z19	X20	Y20	Z20	X21	Y21	Z21	X22	Y22	Z22	X23	Y23	Z23	X24	Y24	Z24	X25	Y25	Z25	X26	Y26	Z26	X27	Y27	Z27	X28	Y28	Z28	X29	Y29	Z29	X30	Y30	Z30	X31	Y31	Z31	X32	Y32	Z32	X33	Y33	Z33	X34	Y34	Z34	X35	Y35	Z35	X36	Y36	Z36	X37	Y37	Z37	X38	Y38	Z38	X39	Y39	Z39	X40	Y40	Z40	X41	Y41	Z41	X42	Y42	Z42	X43	Y43	Z43	X44	Y44	Z44	X45	Y45	Z45	X46	Y46	Z46	X47	Y47	Z47	X48	Y48	Z48	X49	Y49	Z49	X50	Y50	Z50	
1	0.0050	508.770543	1347.359477	-38.986169	515.698269	1355.762414	-394.196838	502.139981	1417.175839	-218.836876	472.553869	1263.972219	-210.918673	591.773258	1111.954201	24.686926	799.627356	887.482999	-44.848805	626.493287	1124.624190	-446.729007	811.247142	889.181909	-395.187267	-58.678637	1215.258471	-241.112354	122.459913	1180.022590	-385.482074	94.445776	1211.740776	-71.861913	132.243145	1118.297641	-346.892666	110.049137	1156.930860	-103.684143	-26.735662	1257.294379	-191.196130	-15.079570	1251.394296	-285.544900	6.687051	1122.004810	-29.716997	24.880732	1070.164891	-408.926750	150.348600	1027.932814	-28.070004	236.835790	1007.845806	-28.008636	300.015784	947.626563	-33.596023	253.016443	1039.510480	-40.017723	398.135191	877.959891	-54.162910	382.576024	865.109344	-161.074399	343.411275	759.628520	-23.833216	346.143082	670.849874	-42.477435	303.151564	595.853239	-48.222617	368.477983	682.908835	-61.536530	267.314395	482.563218	-59.395264	280.265179	507.227433	-146.157777	193.870837	435.731977	-103.175268	486.752281	496.302460	-97.050859	406.291046	444.355452	-31.838275	57.211598	936.021767	-424.234666	95.236980	857.329049	-417.589022	129.666634	863.956425	-406.251532	87.109143	768.873731	-413.546036	104.416150	642.381961	-385.195531	90.877644	620.104029	-285.336341	2.678265	233.451017	-396.569582	15.513843	256.721775	-307.808230	-58.562860	181.039326	-357.948422	155.185796	207.092719	-414.638885	71.970583	517.010880	-417.558562	68.815246	433.146507	-398.106573	30.066330	354.267035	-404.604209	85.092823	432.845042	-362.888619	218.065666	264.678106	-343.531534	-189.317214	920.382286	-233.080392	18.366107	83.649185	-425.981922	10.962075	80.414329	-27.494605	
2	0.0100	508.673017	1347.363974	-39.120789	522.182097	1356.631936	-396.719490	502.002610	1417.088851	-218.954829	472.417342	1263.901233	-210.962307	591.673457	1111.901855	24.562003	799.647260	887.448322	-44.831814	626.566459	1124.703569	-446.446923	810.385230	888.649191	-394.154191	-58.866202	1215.284700	-241.139666	122.295059	1180.025533	-385.518492	94.272910	1211.644571	-71.905234	132.032806	1118.292491	-346.989124	109.813412	1156.920493	-103.746506	-26.928005	1257.353976	-191.240643	-15.297842	1251.458015	-285.562982	6.439747	1122.013462	-29.779339	24.665975	1070.232566	-408.958397	150.093807	1027.909019	-28.081321	236.343545	1007.998432	-28.237945	299.846750	947.422683	-33.715573	252.771596	1039.467439	-40.030504	397.837102	877.853327	-54.174946	382.303484	864.993744	-161.044232	343.212134	759.488302	-23.837310	345.972467	670.688722	-42.499387	303.037524	595.698046	-48.222819	368.389237	682.800718	-61.529618	267.296884	482.348006	-59.404661	280.241974	507.076050	-146.187516	193.890184	435.463394	-103.199388	486.732925	496.277628	-97.047249	406.298347	444.296928	-31.860168	57.012986	936.069518	-424.283452	95.059639	857.376338	-417.605344	129.480520	864.018201	-406.314933	86.906838	768.909318	-413.537546	104.253344	642.458980	-385.188982	90.744971	620.194853	-285.319883	2.585521	233.519101	-396.568530	15.358087	256.828726	-307.786609	-58.635146	181.101171	-357.935574	155.095527	207.191525	-414.641050	71.843104	517.096493	-417.539623	68.681961	433.214160	-398.101589	29.971309	354.320008	-404.602404	84.958710	432.920314	-362.838238	217.965167	264.768323	-343.542511	-189.214753	920.319392	-232.966102	18.393103	83.760061	-425.979367	10.964589	80.430392	-27.519069	
3	0.0150	508.592344	1347.388437	-39.245783	522.015498	1356.688815	-396.724014	501.879730	1417.015771	-219.059292	472.222310	1263.882602	-210.985282	591.581400	1111.849213	24.407761	799.603027	887.452304	-44.885569	626.673008	1124.800838	-446.121377	810.399521	888.657409	-394.136304	-59.075850	1215.300180	-241.174151	122.162955	1180.033903	-385.574966	94.123999	1211.603882	-71.943732	132.413051	1117.960620	-347.210333	109.623989	1156.885273	-103.803439	-27.128501	1257.347387	-191.217302	-15.484523	1251.471739	-285.554109	6.217266	1121.989850	-29.836279	24.458478	1070.210691	-408.955034	149.890487	1027.872296	-28.095332	236.360181	1007.769838	-28.054877	299.619686	947.459358	-33.772402	252.546735	1039.394153	-40.075140	397.570927	877.766237	-54.192673	382.069547	864.895139	-161.080695	343.025898	759.328928	-23.850750	345.793954	670.519016	-42.562857	302.961031	595.525771	-48.239264	368.299449	682.708190	-61.520829	267.312913	482.068752	-59.428526	280.238930	506.902596	-146.197920	193.942907	435.196703	-103.219653	486.728895	496.277792	-97.046135	406.320737	444.217983	-31.861248	56.838904	936.103671	-424.323289	94.883162	857.424905	-417.629471	129.301484	864.108379	-406.367031	86.755409	768.953368	-413.517715	104.120255	642.532366	-385.170548	90.598987	620.275059	-285.306161	2.475842	233.582507	-396.558005	15.056053	257.049357	-307.656439	-58.719503	181.148273	-357.916033	154.996993	207.299175	-414.643871	71.710965	517.182302	-417.533875	68.573875	433.276104	-398.097085	29.847819	354.406037	-404.589370	84.831483	432.981765	-362.821103	217.875532	264.870410	-343.534344	-189.217940	920.343062	-232.861040	18.401727	83.766144	-425.979524	10.954682	80.408267	-27.509878	
4	0.0200	508.519801	1347.400779	-39.403814	521.743554	1357.969266	-405.390323	501.879352	1417.101930	-219.236648	472.119359	1263.837580	-211.035169	591.499003	1111.810194	24.239650	799.633204	887.426890	-44.883228	626.259314	1126.114456	-449.818079	810.406917	888.627403	-394.109402	-59.287151	1215.294271	-241.181011	123.065064	1179.415822	-384.295720	93.828924	1211.987993	-72.609721	134.992430	1121.648699	-354.130523	109.436206	1156.853381	-103.857294	-27.641281	1256.635251	-191.851596	-15.477386	1251.315511	-285.333965	6.005999	1121.957182	-29.874480	23.768627	1070.963935	-410.858960	149.680410	1027.823086	-28.100103	236.150047	1008.385798	-26.989078	299.419543	947.387184	-33.663811	253.207153	1038.947613	-38.898771	397.283797	877.568587	-54.163659	383.755912	866.699751	-168.542626	343.860906	758.014664	-27.184389	346.167021	671.182148	-42.347272	302.034662	595.541383	-50.141627	370.669876	668.761745	-74.653517	267.167704	481.930095	-59.137866	279.241776	507.625775	-147.978974	193.976760	434.941546	-103.229204	486.774693	496.309606	-97.205325	406.258042	444.252059	-31.490298	56.206140	936.789683	-425.809038	94.777135	857.476251	-417.534744	135.437124	867.081128	-412.203091	86.294859	769.972534	-415.067069	108.252768	647.248925	-393.497392	89.600236	620.075054	-285.333441	2.394737	233.621221	-396.523614	14.978615	257.086145	-307.665028	-58.793677	181.195367	-357.901462	154.156150	209.282873	-417.389316	71.716548	517.187404	-417.307195	68.302293	434.973359	-401.225102	29.147010	355.928744	-406.946120	84.706133	432.999470	-362.754464	217.769224	264.982658	-343.514041	-189.239330	920.327526	-232.912325	18.399320	83.767596	-425.984558	10.833659	79.972355	-28.318163	
